<svg width="153" height="123" viewBox="0 0 153 123" fill="none" xmlns="http://www.w3.org/2000/svg">
<path d="M31.8312 0.633057C23.1107 0.633057 16.6654 8.26689 16.9575 16.5391C17.2291 24.4922 16.8692 34.7883 14.2747 43.1896C11.6735 51.6113 7.27933 56.9496 0.09375 57.6355V65.3644C7.27933 66.0504 11.6735 71.3886 14.2747 79.8103C16.8692 88.2048 17.2291 98.5078 16.9507 106.454C16.6654 114.733 23.1107 122.367 31.838 122.367H121.176C129.896 122.367 136.348 114.733 136.063 106.454C135.784 98.5078 136.144 88.2048 138.732 79.8103C141.34 71.3886 145.727 66.0504 152.906 65.3644V57.6355C145.721 56.9496 141.34 51.6113 138.732 43.1896C136.144 34.7951 135.784 24.4922 136.063 16.5391C136.348 8.26689 129.896 0.633057 121.176 0.633057H31.8312ZM103.694 75.5655C103.694 86.9619 95.1975 93.8759 81.0912 93.8759H57.0758C56.7355 93.8767 56.3982 93.8105 56.0835 93.6808C55.7688 93.5512 55.4827 93.3607 55.2417 93.1204C55.0007 92.88 54.8095 92.5944 54.679 92.28C54.5486 91.9657 54.4814 91.6286 54.4814 91.2882V31.7117C54.4814 31.3713 54.5486 31.0343 54.679 30.7199C54.8095 30.4055 55.0007 30.12 55.2417 29.8796C55.4827 29.6392 55.7688 29.4488 56.0835 29.3191C56.3982 29.1895 56.7355 29.1232 57.0758 29.1241H80.9485C92.7117 29.1241 100.434 35.4947 100.434 45.2815C100.434 52.1411 95.2382 58.2943 88.6231 59.3674V59.7274C97.6289 60.7121 103.694 66.9537 103.694 75.5655ZM78.4696 37.3284H64.7776V56.6711H76.3098C85.2273 56.6711 90.1377 53.0851 90.1377 46.667C90.1377 40.6563 85.9132 37.3352 78.4696 37.3352V37.3284ZM64.7776 64.3457V85.6647H78.9722C88.2564 85.6647 93.1667 81.9361 93.1667 74.9339C93.1667 67.9385 88.1205 64.3457 78.3745 64.3457H64.7776Z" fill="#39B5CB"/>
</svg>
