<svg width="8" height="8" viewBox="0 0 8 8" fill="none" xmlns="http://www.w3.org/2000/svg">
<path d="M0.219999 0.219999C0.289564 0.150334 0.37218 0.0950682 0.463122 0.0573606C0.554065 0.0196531 0.651549 0.000244141 0.749999 0.000244141C0.848448 0.000244141 0.945932 0.0196531 1.03687 0.0573606C1.12782 0.0950682 1.21043 0.150334 1.28 0.219999L4 2.939L6.72 0.219999C6.7896 0.150398 6.87223 0.0951877 6.96316 0.0575202C7.0541 0.0198526 7.15157 0.000465395 7.25 0.000465393C7.34843 0.000465391 7.44589 0.0198526 7.53683 0.0575202C7.62777 0.0951877 7.7104 0.150398 7.78 0.219999C7.8496 0.289599 7.90481 0.372227 7.94248 0.463165C7.98014 0.554102 7.99953 0.651568 7.99953 0.749999C7.99953 0.848429 7.98014 0.945895 7.94248 1.03683C7.90481 1.12777 7.8496 1.2104 7.78 1.28L5.061 4L7.78 6.72C7.92056 6.86056 7.99953 7.05121 7.99953 7.25C7.99953 7.44879 7.92056 7.63943 7.78 7.78C7.63943 7.92056 7.44879 7.99953 7.25 7.99953C7.05121 7.99953 6.86056 7.92056 6.72 7.78L4 5.061L1.28 7.78C1.13943 7.92056 0.948787 7.99953 0.749999 7.99953C0.55121 7.99953 0.360563 7.92056 0.219999 7.78C0.0794339 7.63943 0.000465393 7.44879 0.000465393 7.25C0.000465393 7.05121 0.0794339 6.86056 0.219999 6.72L2.939 4L0.219999 1.28C0.150334 1.21043 0.0950682 1.12782 0.0573606 1.03687C0.0196531 0.945932 0.000244141 0.848448 0.000244141 0.749999C0.000244141 0.651549 0.0196531 0.554065 0.0573606 0.463122C0.0950682 0.37218 0.150334 0.289564 0.219999 0.219999Z" fill="url(#paint0_linear_608_3)"/>
<defs>
<linearGradient id="paint0_linear_608_3" x1="3.99989" y1="0.000244141" x2="3.99989" y2="7.99953" gradientUnits="userSpaceOnUse">
<stop stop-color="#39B5CB"/>
<stop offset="1" stop-color="#34E3CE"/>
</linearGradient>
</defs>
</svg>
