<svg width="15" height="15" viewBox="0 0 15 15" fill="none" xmlns="http://www.w3.org/2000/svg">
<path d="M6.43999 0.853963C6.72124 0.573062 7.10249 0.415283 7.49999 0.415283C7.89749 0.415283 8.27874 0.573062 8.55999 0.853963L14.146 6.43896C14.2854 6.57826 14.396 6.74366 14.4714 6.92572C14.5468 7.10777 14.5857 7.3029 14.5857 7.49996C14.5857 7.69703 14.5468 7.89216 14.4714 8.07421C14.396 8.25626 14.2854 8.42166 14.146 8.56096L8.56099 14.146C8.42169 14.2854 8.25629 14.3959 8.07423 14.4714C7.89218 14.5468 7.69705 14.5856 7.49999 14.5856C7.30292 14.5856 7.10779 14.5468 6.92574 14.4714C6.74369 14.3959 6.57829 14.2854 6.43899 14.146L0.853986 8.56096C0.714597 8.42166 0.604022 8.25626 0.528579 8.07421C0.453137 7.89216 0.414307 7.69703 0.414307 7.49996C0.414307 7.3029 0.453137 7.10777 0.528579 6.92572C0.604022 6.74366 0.714597 6.57826 0.853986 6.43896L4.79299 2.49996L6.14599 3.85296C6.05529 4.04281 6.00555 4.24961 5.99999 4.45993C5.99443 4.67026 6.03318 4.8794 6.11372 5.07377C6.19426 5.26814 6.31479 5.44339 6.46748 5.58814C6.62016 5.73289 6.8016 5.8439 6.99999 5.91396V9.08496C6.66638 9.20291 6.38521 9.435 6.20617 9.7402C6.02713 10.0454 5.96175 10.4041 6.02159 10.7528C6.08142 11.1016 6.26262 11.4179 6.53316 11.646C6.80369 11.8741 7.14614 11.9992 7.49999 11.9992C7.85383 11.9992 8.19628 11.8741 8.46682 11.646C8.73735 11.4179 8.91855 11.1016 8.97838 10.7528C9.03822 10.4041 8.97284 10.0454 8.7938 9.7402C8.61476 9.435 8.33359 9.20291 7.99999 9.08496V5.91496C8.04999 5.89696 8.09999 5.87696 8.14699 5.85396L9.14699 6.85396C8.99447 7.17326 8.95975 7.53619 9.04895 7.87861C9.13815 8.22104 9.34553 8.5209 9.63445 8.7252C9.92336 8.92951 10.2752 9.0251 10.6278 8.99507C10.9803 8.96505 11.311 8.81135 11.5612 8.56114C11.8114 8.31093 11.9651 7.98032 11.9951 7.62775C12.0251 7.27517 11.9295 6.92334 11.7252 6.63442C11.5209 6.34551 11.2211 6.13813 10.8786 6.04893C10.5362 5.95972 10.1733 5.99445 9.85399 6.14696L8.85399 5.14696C8.98767 4.86706 9.03129 4.55259 8.97883 4.24686C8.92638 3.94114 8.78043 3.6592 8.56109 3.43986C8.34175 3.22052 8.05981 3.07457 7.75409 3.02212C7.44836 2.96966 7.13389 3.01328 6.85399 3.14696L5.49999 1.79196L6.43999 0.851963V0.853963Z" fill="#39B5CB"/>
</svg>
