<svg width="24" height="24" viewBox="0 0 24 24" fill="none" xmlns="http://www.w3.org/2000/svg">
<path d="M11.9999 0.333313C10.4678 0.333313 8.95074 0.63508 7.53528 1.22139C6.11981 1.80769 4.83369 2.66705 3.75034 3.7504C1.56242 5.93832 0.333252 8.90579 0.333252 12C0.333252 17.1566 3.68159 21.5316 8.31325 23.0833C8.89659 23.1766 9.08325 22.815 9.08325 22.5V20.5283C5.85159 21.2283 5.16325 18.965 5.16325 18.965C4.62659 17.6116 3.86825 17.25 3.86825 17.25C2.80659 16.5266 3.94992 16.55 3.94992 16.55C5.11659 16.6316 5.73492 17.7516 5.73492 17.7516C6.74992 19.525 8.46492 19 9.12992 18.72C9.23492 17.9616 9.53825 17.4483 9.86492 17.1566C7.27492 16.865 4.55659 15.8616 4.55659 11.4166C4.55659 10.1216 4.99992 9.08331 5.75825 8.25498C5.64159 7.96331 5.23325 6.74998 5.87492 5.17498C5.87492 5.17498 6.85492 4.85998 9.08325 6.36498C10.0049 6.10831 11.0083 5.97998 11.9999 5.97998C12.9916 5.97998 13.9949 6.10831 14.9166 6.36498C17.1449 4.85998 18.1249 5.17498 18.1249 5.17498C18.7666 6.74998 18.3583 7.96331 18.2416 8.25498C18.9999 9.08331 19.4433 10.1216 19.4433 11.4166C19.4433 15.8733 16.7133 16.8533 14.1116 17.145C14.5316 17.5066 14.9166 18.2183 14.9166 19.3033V22.5C14.9166 22.815 15.1033 23.1883 15.6983 23.0833C20.3299 21.52 23.6666 17.1566 23.6666 12C23.6666 10.4679 23.3648 8.9508 22.7785 7.53534C22.1922 6.11987 21.3328 4.83375 20.2495 3.7504C19.1661 2.66705 17.88 1.80769 16.4646 1.22139C15.0491 0.63508 13.532 0.333313 11.9999 0.333313Z" fill="#39B5CB"/>
</svg>
