<svg width="139" height="157" viewBox="0 0 139 157" fill="none" xmlns="http://www.w3.org/2000/svg">
<path d="M0.366821 0.09375L12.8063 140.81L69.5 156.906L125.968 140.81L138.652 0.09375H0.366821ZM112.51 33.4729L111.606 42.369L111.285 46.0443H45.0546L46.6001 63.7988H109.759L109.137 68.3788L105.141 114.028L104.821 117.081L69.5754 126.807V126.863H69.3493L69.2927 126.882V126.863H69.2739L33.7272 117.062L31.5785 89.8086H48.7488L49.9739 103.605L69.2739 108.826H69.3493L88.5739 103.624L90.7225 81.2706H69.2927V81.2518H30.6739L26.3766 33.4729L26.0562 28.893H112.812L112.51 33.4729Z" fill="#39B5CB"/>
</svg>
