<svg width="157" height="157" viewBox="0 0 157 157" fill="none" xmlns="http://www.w3.org/2000/svg">
<path d="M26.25 0.125C19.3212 0.125 12.6762 2.87745 7.77684 7.77684C2.87745 12.6762 0.125 19.3212 0.125 26.25V130.75C0.125 137.679 2.87745 144.324 7.77684 149.223C12.6762 154.123 19.3212 156.875 26.25 156.875H130.75C137.679 156.875 144.324 154.123 149.223 149.223C154.123 144.324 156.875 137.679 156.875 130.75V26.25C156.875 19.3212 154.123 12.6762 149.223 7.77684C144.324 2.87745 137.679 0.125 130.75 0.125H26.25ZM90.1169 113.812C96.3869 118.863 102.639 121.345 108.892 121.284C112.724 121.284 115.667 120.587 117.705 119.177C118.656 118.559 119.431 117.704 119.951 116.696C120.472 115.689 120.721 114.563 120.674 113.429C120.687 112.193 120.429 110.969 119.917 109.844C119.405 108.718 118.653 107.719 117.714 106.915C115.667 105.13 111.801 103.345 106.114 101.551C99.2868 99.5742 94.0095 97.0226 90.3085 93.8876C86.6684 90.7526 84.8223 86.381 84.7526 80.7642C84.7526 75.4608 87.0516 71.0282 91.6496 67.4491C96.1257 63.8787 101.838 62.0848 108.805 62.0848C118.506 62.0848 126.3 64.4447 132.169 69.1734L125.464 79.6147C123.05 77.7368 120.28 76.3681 117.322 75.5914C114.663 74.7022 111.886 74.2179 109.084 74.1545C105.774 74.1545 103.118 74.7641 101.133 75.9746C99.1562 77.1937 98.1721 78.7874 98.1721 80.7642C98.1721 82.9412 99.3826 84.7874 101.803 86.3201C104.242 87.7918 108.387 89.4202 114.256 91.2055C121.345 93.3129 126.396 96.1257 129.391 99.6351C132.396 103.145 133.894 107.621 133.894 113.046C133.894 118.602 131.76 123.391 127.476 127.415C123.261 131.377 117.13 133.45 109.084 133.641C98.5466 133.641 89.7337 130.48 82.6452 124.158L90.1169 113.812ZM41.9598 119.368C44.0063 120.648 46.462 121.284 49.3358 121.284C52.3402 121.284 54.822 120.422 56.8075 118.698C58.7843 116.912 59.7771 113.812 59.7771 109.406V63.2343H72.709V111.896C72.5174 119.429 70.349 124.863 66.1951 128.181C63.9286 130.108 61.2864 131.544 58.436 132.396C55.7959 133.2 53.0536 133.62 50.2937 133.641C45.5041 133.641 41.2545 132.814 37.5534 131.151C33.5911 129.365 30.2732 126.204 27.5911 121.667L36.5955 114.291C38.2501 116.529 40.044 118.219 41.9598 119.368Z" fill="#39B5CB"/>
</svg>
