<svg width="12" height="24" viewBox="0 0 12 24" fill="none" xmlns="http://www.w3.org/2000/svg">
<path d="M11.193 9.555C9.929 3.975 6.941 2.141 6.62 1.44C6.34 1.046 6.09 0.486 5.885 0C5.849 0.495 5.83 0.685 5.362 1.184C4.639 1.75 0.924001 4.866 0.622001 11.204C0.340001 17.116 4.892 20.639 5.51 21.088L5.58 21.138C5.70869 22.0898 5.81871 23.0439 5.91 24H6.391C6.50492 22.9681 6.67518 21.9433 6.901 20.93C7.318 20.634 7.505 20.467 7.751 20.237C8.91596 19.1593 9.84179 17.8491 10.4686 16.3911C11.0955 14.9332 11.4093 13.3599 11.39 11.773C11.4 10.959 11.287 10.111 11.193 9.555ZM5.857 17.75C5.857 17.75 5.857 9.459 6.132 9.46C6.345 9.46 6.622 20.155 6.622 20.155C6.241 20.11 5.857 18.395 5.857 17.75Z" fill="#39B5CB"/>
</svg>
