<svg width="144" height="144" viewBox="0 0 144 144" fill="none" xmlns="http://www.w3.org/2000/svg">
<path fill-rule="evenodd" clip-rule="evenodd" d="M2.07233e-06 72C0.000463792 59.576 3.2158 47.3635 9.33337 36.55C15.4509 25.7365 24.2625 16.69 34.9114 10.2902C45.5603 3.89031 57.684 0.354889 70.1037 0.0276674C82.5234 -0.299554 94.8164 2.59256 105.788 8.42279C116.759 14.253 126.034 22.823 132.713 33.2993C139.391 43.7757 143.245 55.8019 143.9 68.2087C144.555 80.6154 141.988 92.9805 136.449 104.102C130.91 115.223 122.588 124.721 112.291 131.674L47.1072 40.416C46.5166 39.5883 45.6784 38.9696 44.7134 38.649C43.7485 38.3284 42.7067 38.3225 41.7382 38.6322C40.7697 38.9418 39.9245 39.5511 39.3246 40.372C38.7246 41.193 38.4009 42.1832 38.4 43.2V115.2H48V58.176L103.968 136.531C92.9895 141.971 80.8043 144.52 68.5658 143.935C56.3273 143.351 44.4404 139.653 34.0302 133.192C23.62 126.73 15.0309 117.719 9.0759 107.011C3.12092 96.303 -0.00293724 84.2525 2.07233e-06 72ZM96 96V38.4H105.6V96H96Z" fill="#39B5CB"/>
</svg>
