<svg width="185" height="185" viewBox="0 0 185 185" fill="none" xmlns="http://www.w3.org/2000/svg">
<g clip-path="url(#clip0_15_136)">
<path d="M92.5 184.661C89.8637 184.661 87.4125 183.975 85.1231 182.788L61.7746 169.391C58.2673 167.525 60.0248 166.847 61.0808 166.508C65.8137 164.981 66.6925 164.642 71.6104 161.921C72.1346 161.582 72.8437 161.752 73.3679 162.091L91.2743 172.443C91.9681 172.782 92.8546 172.782 93.3787 172.443L163.424 133.254C164.118 132.915 164.473 132.236 164.473 131.388V53.1797C164.473 52.3318 164.126 51.6534 163.424 51.3143L93.3787 12.3024C92.6773 11.9632 91.7985 11.9632 91.2743 12.3024L21.2287 51.3143C20.5273 51.6534 20.1727 52.5014 20.1727 53.1797V131.388C20.1727 132.067 20.5273 132.915 21.2287 133.254L40.3608 143.945C50.7208 149.033 57.2112 143.097 57.2112 137.162V59.9707C57.2112 58.9532 58.09 57.9357 59.3233 57.9357H68.2727C69.3287 57.9357 70.3771 58.7836 70.3771 59.9707V137.154C70.3771 150.559 62.8306 158.36 49.6648 158.36C45.6256 158.36 42.4652 158.36 33.5158 154.12L15.0852 143.945C12.8643 142.724 11.0097 140.932 9.71284 138.754C8.41602 136.577 7.72402 134.092 7.70831 131.558V53.3493C7.70831 48.2618 10.5141 43.5134 15.0852 40.9697L85.1308 1.77281C87.4112 0.603346 89.9372 -0.0065918 92.5 -0.0065918C95.0628 -0.0065918 97.5887 0.603346 99.8691 1.77281L169.922 40.962C174.486 43.5057 177.292 48.2541 177.292 53.3416V131.55C177.292 136.638 174.486 141.386 169.922 143.938L99.8691 183.119C97.5433 184.127 95.035 184.647 92.5 184.645V184.661ZM114.091 130.88C83.3733 130.88 77.0525 117.313 77.0525 105.774C77.0525 104.756 77.9312 103.739 79.1569 103.739H88.2835C89.3396 103.739 90.2106 104.417 90.2106 105.434C91.6212 114.422 95.6604 118.832 114.268 118.832C129.014 118.832 135.335 115.609 135.335 107.978C135.335 103.569 133.578 100.347 110.584 98.1424C91.4439 96.2693 79.5114 92.207 79.5114 77.4455C79.5114 63.7016 91.4439 55.5538 111.462 55.5538C133.932 55.5538 144.994 63.0232 146.397 79.3109C146.381 79.8624 146.195 80.3955 145.865 80.8372C145.518 81.1764 144.994 81.5155 144.462 81.5155H135.335C134.892 81.5048 134.464 81.3501 134.116 81.0747C133.769 80.7994 133.52 80.4184 133.408 79.9893C131.296 70.6622 125.854 67.602 111.462 67.602C95.3058 67.602 93.3787 73.0286 93.3787 77.0986C93.3787 82.0243 95.6604 83.5505 117.429 86.2639C139.02 88.9772 149.202 92.8776 149.202 107.462C149.025 122.401 136.391 130.88 114.091 130.88Z" fill="#39B5CB"/>
</g>
<defs>
<clipPath id="clip0_15_136">
<rect width="185" height="185" fill="white"/>
</clipPath>
</defs>
</svg>
