<svg width="166" height="148" viewBox="0 0 166 148" fill="none" xmlns="http://www.w3.org/2000/svg">
<path d="M82.9999 59.5101C90.8966 59.5101 97.3366 65.9501 97.3366 74.0001C97.3366 81.6668 90.8966 88.1835 82.9999 88.1835C75.1032 88.1835 68.6633 81.6668 68.6633 74.0001C68.6633 65.9501 75.1032 59.5101 82.9999 59.5101ZM47.5033 135.333C52.3332 138.247 62.9133 133.8 75.1033 122.3C71.1166 117.777 67.2066 112.87 63.5266 107.733C57.3484 107.142 51.2063 106.221 45.1266 104.973C41.2166 121.38 42.6733 132.65 47.5033 135.333ZM52.9466 91.3268L50.7233 87.4168C49.8799 89.6401 49.0366 91.8634 48.4999 94.0101C50.5699 94.4701 52.8699 94.8535 55.2466 95.2368L52.9466 91.3268ZM103.087 85.5001L109.297 74.0001L103.087 62.5001C100.787 58.4368 98.3333 54.8335 96.1099 51.2301C91.9699 51.0001 87.5999 51.0001 82.9999 51.0001C78.3999 51.0001 74.0299 51.0001 69.8899 51.2301C67.6666 54.8335 65.2132 58.4368 62.9132 62.5001L56.7032 74.0001L62.9132 85.5001C65.2132 89.5635 67.6666 93.1668 69.8899 96.7701C74.0299 97.0001 78.3999 97.0001 82.9999 97.0001C87.5999 97.0001 91.9699 97.0001 96.1099 96.7701C98.3333 93.1668 100.787 89.5635 103.087 85.5001ZM82.9999 33.9801C81.5433 35.6668 80.0099 37.4301 78.4766 39.5001H87.5233C85.9899 37.4301 84.4566 35.6668 82.9999 33.9801ZM82.9999 114.02C84.4566 112.333 85.9899 110.57 87.5233 108.5H78.4766C80.0099 110.57 81.5433 112.333 82.9999 114.02ZM118.42 12.6668C113.667 9.75345 103.087 14.2001 90.8966 25.7001C94.8832 30.2234 98.7933 35.1301 102.473 40.2668C108.76 40.8801 114.97 41.8001 120.873 43.0268C124.783 26.6201 123.327 15.3501 118.42 12.6668ZM113.053 56.6735L115.277 60.5835C116.12 58.3601 116.963 56.1368 117.5 53.9901C115.43 53.5301 113.13 53.1468 110.753 52.7635L113.053 56.6735ZM124.17 2.62345C135.44 9.06345 136.667 26.0068 131.913 45.7868C151.387 51.5368 165.417 61.0435 165.417 74.0001C165.417 86.9568 151.387 96.4635 131.913 102.213C136.667 121.993 135.44 138.937 124.17 145.377C112.977 151.817 97.7199 144.457 82.9999 130.427C68.2799 144.457 53.0233 151.817 41.7533 145.377C30.5599 138.937 29.3333 121.993 34.0866 102.213C14.6133 96.4635 0.583252 86.9568 0.583252 74.0001C0.583252 61.0435 14.6133 51.5368 34.0866 45.7868C29.3333 26.0068 30.5599 9.06345 41.7533 2.62345C53.0233 -3.81655 68.2799 3.54345 82.9999 17.5735C97.7199 3.54345 112.977 -3.81655 124.17 2.62345ZM121.947 74.0001C124.553 79.7501 126.853 85.5001 128.77 91.3268C144.87 86.4968 153.917 79.5968 153.917 74.0001C153.917 68.4035 144.87 61.5035 128.77 56.6735C126.853 62.5001 124.553 68.2501 121.947 74.0001ZM44.0533 74.0001C41.4466 68.2501 39.1466 62.5001 37.2299 56.6735C21.1299 61.5035 12.0833 68.4035 12.0833 74.0001C12.0833 79.5968 21.1299 86.4968 37.2299 91.3268C39.1466 85.5001 41.4466 79.7501 44.0533 74.0001ZM113.053 91.3268L110.753 95.2368C113.13 94.8535 115.43 94.4701 117.5 94.0101C116.963 91.8634 116.12 89.6401 115.277 87.4168L113.053 91.3268ZM90.8966 122.3C103.087 133.8 113.667 138.247 118.42 135.333C123.327 132.65 124.783 121.38 120.873 104.973C114.97 106.2 108.76 107.12 102.473 107.733C98.7933 112.87 94.8832 117.777 90.8966 122.3ZM52.9466 56.6735L55.2466 52.7635C52.8699 53.1468 50.5699 53.5301 48.4999 53.9901C49.0366 56.1368 49.8799 58.3601 50.7233 60.5835L52.9466 56.6735ZM75.1033 25.7001C62.9133 14.2001 52.3332 9.75345 47.5033 12.6668C42.6733 15.3501 41.2166 26.6201 45.1266 43.0268C51.2063 41.7794 57.3484 40.858 63.5266 40.2668C67.2066 35.1301 71.1166 30.2234 75.1033 25.7001Z" fill="#39B5CB"/>
</svg>
