<svg width="56" height="56" viewBox="0 0 56 56" fill="none" xmlns="http://www.w3.org/2000/svg">
<path d="M21.8333 9.5V15.6667H6.41667V49.5833H40.3333V34.1667H46.5V52.6667C46.5 53.4844 46.1752 54.2687 45.5969 54.8469C45.0187 55.4252 44.2344 55.75 43.4167 55.75H3.33333C2.51558 55.75 1.73132 55.4252 1.15309 54.8469C0.57485 54.2687 0.25 53.4844 0.25 52.6667V12.5833C0.25 11.7656 0.57485 10.9813 1.15309 10.4031C1.73132 9.82485 2.51558 9.5 3.33333 9.5H21.8333ZM55.75 0.25V24.9167H49.5833V10.7734L25.5549 34.8049L21.1951 30.4451L45.2204 6.41667H31.0833V0.25H55.75Z" fill="#363636"/>
</svg>
