<svg width="32" height="23" viewBox="0 0 32 23" fill="none" xmlns="http://www.w3.org/2000/svg">
<path d="M21.875 2.56794C21.719 2.56794 21.615 2.58894 21.51 2.61494V2.63094H21.526C21.599 2.76594 21.719 2.87094 21.812 2.99594C21.885 3.13694 21.947 3.28194 22.015 3.42294L22.036 3.40194C22.161 3.31294 22.224 3.17294 22.224 2.95894C22.172 2.89594 22.161 2.82894 22.115 2.77094C22.063 2.68194 21.948 2.63594 21.875 2.56794ZM7.69298 20.1609H6.45898C6.42161 18.1968 6.30184 16.2351 6.09998 14.2809H6.08998L4.20998 20.1609H3.26698L1.40198 14.2809H1.38598C1.24104 16.2379 1.15434 18.1988 1.12598 20.1609H0.000976562C0.0618927 17.6951 0.244448 15.2338 0.547977 12.7859H2.07898L3.85998 18.2029H3.86998L5.66698 12.7859H7.12498C7.44798 15.4739 7.64098 17.9319 7.69798 20.1609H7.69298ZM13.047 14.7189C12.547 17.4479 11.88 19.4329 11.063 20.6669C10.417 21.6199 9.71398 22.0989 8.94798 22.0989C8.74498 22.0989 8.49498 22.0359 8.19298 21.9109V21.2549C8.34398 21.2759 8.51598 21.2909 8.70898 21.2909C9.06798 21.2909 9.35498 21.1869 9.57398 20.9939C9.83398 20.7539 9.96498 20.4839 9.96498 20.1869C9.96498 19.9789 9.86598 19.5619 9.65798 18.9269L8.30898 14.7189H9.52298L10.492 17.8649C10.711 18.5839 10.805 19.0789 10.763 19.3649C11.299 17.9479 11.669 16.3959 11.878 14.7189H13.047ZM29.484 20.1609H25.974V12.7859H27.156V19.2549H29.484V20.1609ZM25.057 20.3389L23.703 19.6719C23.823 19.5729 23.937 19.4639 24.042 19.3389C24.62 18.6669 24.907 17.6619 24.907 16.3389C24.907 13.8959 23.949 12.6779 22.032 12.6779C21.094 12.6779 20.36 12.9849 19.834 13.6049C19.261 14.2819 18.969 15.2819 18.969 16.5999C18.969 17.8969 19.224 18.8449 19.735 19.4539C20.204 19.9959 20.907 20.2719 21.85 20.2719C22.199 20.2719 22.522 20.2299 22.814 20.1419L24.58 21.1729L25.064 20.3399L25.057 20.3389ZM20.667 18.6819C20.365 18.2029 20.219 17.4319 20.219 16.3689C20.219 14.5099 20.782 13.5829 21.912 13.5829C22.501 13.5829 22.938 13.8069 23.214 14.2499C23.511 14.7339 23.662 15.4949 23.662 16.5469C23.662 18.4169 23.094 19.3599 21.969 19.3599C21.375 19.3599 20.943 19.1359 20.662 18.6929L20.667 18.6819ZM18.458 18.1199C18.458 18.7449 18.229 19.2609 17.765 19.6559C17.307 20.0569 16.697 20.2599 15.921 20.2599C15.197 20.2599 14.504 20.0309 13.822 19.5719L14.14 18.9369C14.723 19.2289 15.249 19.3749 15.729 19.3749C16.172 19.3749 16.521 19.2759 16.771 19.0829C17.021 18.8849 17.172 18.6089 17.172 18.2599C17.172 17.8219 16.865 17.4469 16.307 17.1349C15.791 16.8489 14.755 16.2599 14.755 16.2599C14.192 15.8489 13.916 15.4109 13.916 14.6869C13.916 14.0879 14.124 13.6089 14.541 13.2439C14.963 12.8689 15.499 12.6869 16.166 12.6869C16.8296 12.6812 17.4801 12.8715 18.036 13.2339L17.75 13.8689C17.3032 13.6722 16.8212 13.5677 16.333 13.5619C15.953 13.5619 15.661 13.6559 15.458 13.8379C15.255 14.0199 15.13 14.2489 15.13 14.5359C15.13 14.9739 15.443 15.3489 16.015 15.6709C16.541 15.9569 17.598 16.5619 17.598 16.5619C18.176 16.9679 18.463 17.4059 18.463 18.1189L18.458 18.1199ZM30.964 10.3129C30.25 10.2969 29.698 10.3699 29.235 10.5679C29.105 10.6199 28.891 10.6199 28.87 10.7869C28.943 10.8599 28.953 10.9749 29.016 11.0729C29.125 11.2499 29.308 11.4899 29.48 11.6149C29.668 11.7609 29.855 11.9069 30.048 12.0319C30.397 12.2459 30.788 12.3709 31.131 12.5839C31.324 12.7089 31.522 12.8699 31.714 13.0009C31.813 13.0689 31.875 13.1889 32 13.2299V13.2039C31.937 13.1259 31.922 13.0109 31.859 12.9179C31.77 12.8289 31.682 12.7509 31.593 12.6629C31.3322 12.3167 31.0195 12.0128 30.666 11.7619C30.38 11.5689 29.755 11.2979 29.64 10.9699L29.624 10.9489C29.817 10.9329 30.046 10.8599 30.233 10.8079C30.535 10.7299 30.816 10.7449 31.129 10.6669C31.2726 10.6297 31.415 10.588 31.556 10.5419V10.4639C31.395 10.3029 31.275 10.0839 31.108 9.93294C30.6478 9.53027 30.1566 9.16447 29.639 8.83894C29.358 8.65694 29.004 8.54194 28.707 8.39094C28.603 8.33894 28.421 8.31294 28.363 8.22394C28.202 8.02594 28.108 7.77094 27.993 7.53594C27.7314 7.02754 27.4882 6.50987 27.264 5.98394C27.103 5.63494 27.009 5.29094 26.811 4.96794C25.894 3.45194 24.894 2.53594 23.363 1.63494C23.035 1.44694 22.639 1.36894 22.222 1.26994C21.998 1.25994 21.779 1.24394 21.555 1.23394C21.409 1.17094 21.269 1.00494 21.144 0.920936C20.634 0.597936 19.321 -0.0950643 18.951 0.821936C18.711 1.40494 19.305 1.97294 19.514 2.26494C19.665 2.47294 19.858 2.70294 19.967 2.93194C20.03 3.08794 20.045 3.24994 20.108 3.41094C20.249 3.80194 20.384 4.23894 20.572 4.60394C20.671 4.79194 20.775 4.98894 20.9 5.15594C20.973 5.25494 21.098 5.29694 21.124 5.45794C20.999 5.63994 20.989 5.90594 20.921 6.12494C20.598 7.13494 20.723 8.37994 21.176 9.12494C21.322 9.34894 21.66 9.83894 22.114 9.65094C22.515 9.48994 22.427 8.98394 22.541 8.53594C22.567 8.42694 22.551 8.35894 22.604 8.28594V8.30694C22.734 8.55694 22.859 8.79694 22.974 9.04694C23.245 9.48494 23.729 9.93794 24.13 10.2399C24.344 10.4009 24.51 10.6779 24.776 10.7759V10.7499H24.755C24.698 10.6719 24.625 10.6349 24.552 10.5729C24.3831 10.4056 24.2264 10.2265 24.083 10.0369C23.713 9.53694 23.38 8.98494 23.088 8.41694C22.9473 8.13629 22.8189 7.84969 22.703 7.55794C22.651 7.45394 22.651 7.29194 22.562 7.23994C22.427 7.43294 22.229 7.59894 22.135 7.84394C21.963 8.22394 21.947 8.69794 21.88 9.18794C21.849 9.19794 21.864 9.18794 21.849 9.20894C21.563 9.13594 21.464 8.84394 21.359 8.59394C21.088 7.95894 21.046 6.94294 21.276 6.21394C21.339 6.02594 21.604 5.43794 21.5 5.26094C21.443 5.08894 21.266 4.98994 21.172 4.85494C21.052 4.68794 20.932 4.47494 20.849 4.28694C20.635 3.78694 20.531 3.23494 20.297 2.73494C20.193 2.50594 20.005 2.26594 19.854 2.05294C19.682 1.81294 19.495 1.64194 19.364 1.35994C19.317 1.26094 19.255 1.09994 19.328 0.994936C19.344 0.921936 19.38 0.895936 19.453 0.874936C19.568 0.775936 19.901 0.900936 20.016 0.957936C20.344 1.08794 20.62 1.21294 20.896 1.40094C21.021 1.48994 21.156 1.65594 21.318 1.70294H21.506C21.792 1.76594 22.11 1.71894 22.376 1.80194C22.85 1.95294 23.277 2.17194 23.662 2.41094C24.8394 3.16673 25.7968 4.2194 26.438 5.46294C26.547 5.66594 26.594 5.85394 26.693 6.06694C26.875 6.50994 27.11 6.95194 27.297 7.37394C27.484 7.79594 27.662 8.22294 27.932 8.57194C28.067 8.75994 28.599 8.85794 28.843 8.95194C29.02 9.03494 29.296 9.10794 29.452 9.20194C29.759 9.38994 30.061 9.60294 30.348 9.81094C30.494 9.90994 30.937 10.1339 30.963 10.3109L30.964 10.3129Z" fill="#39B5CB"/>
</svg>
