<svg width="196" height="118" viewBox="0 0 196 118" fill="none" xmlns="http://www.w3.org/2000/svg">
<path d="M98 0.5C71.9675 0.5 55.7825 13.4675 49.25 39.5C59 26.5325 70.4075 21.6575 83.375 24.875C90.785 26.7275 96.1475 32.09 101.997 38.0375C111.552 47.7875 122.375 59 146.75 59C172.783 59 188.967 46.0325 195.5 20C185.75 32.9675 174.342 37.8425 161.375 34.625C153.965 32.7725 148.7 27.41 142.753 21.4625C133.197 11.7125 122.375 0.5 98 0.5ZM49.25 59C23.2175 59 7.0325 71.9675 0.5 98C10.25 85.0325 21.6575 80.1575 34.625 83.375C42.035 85.2275 47.3 90.59 53.2475 96.5375C62.8025 106.288 73.625 117.5 98 117.5C124.033 117.5 140.217 104.533 146.75 78.5C137 91.4675 125.592 96.3425 112.625 93.125C105.215 91.2725 99.95 85.91 94.0025 79.9625C84.4475 70.2125 73.625 59 49.25 59Z" fill="#39B5CB"/>
</svg>
